<?xml version="1.0" encoding="utf-8"?>
<!-- Svg Vector Icons : http://www.onlinewebfonts.com/icon -->
<!DOCTYPE svg PUBLIC "-//W3C//DTD SVG 1.1//EN" "http://www.w3.org/Graphics/SVG/1.1/DTD/svg11.dtd">
<svg version="1.1" xmlns="http://www.w3.org/2000/svg" xmlns:xlink="http://www.w3.org/1999/xlink" x="0px" y="0px" viewBox="0 0 1000 1000" enable-background="new 0 0 1000 1000" xml:space="preserve">
<metadata> Svg Vector Icons : http://www.onlinewebfonts.com/icon </metadata>
<g><g transform="translate(0.000000,489.000000) scale(0.100000,-0.100000)"><path d="M5980.2,4661.1c-192.3-60.8-310-261-533.7-916.3c-370.8-1083-643.5-1705-947.7-2168c-109.9-166.8-408.1-468.9-622-627.8c-86.3-64.7-249.2-172.7-363-241.3c-158.9-96.1-208-117.7-211.9-94.2c-5.9,27.5-168.7,31.4-1604.9,31.4H100v-2491.8v-2491.8h1599h1599v135.4v135.4l149.1,13.7c82.4,7.9,270.8,11.8,419.9,5.9l272.7-7.8l270.8-164.8c149.1-90.2,386.5-239.4,525.8-329.6c276.6-180.5,327.7-202.1,553.3-249.2c582.7-121.6,1987.5-141.3,2660.5-39.2c576.8,88.3,1004.6,400.3,1230.2,898.6c135.4,298.2,390.4,1524.5,482.7,2323c49,406.1,49,1161.5,2,1418.5c-129.5,712.2-523.9,1226.3-1096.8,1434.2c-255.1,94.2-463,115.8-1092.9,115.8c-521.9,0-555.2,2-541.5,35.3c7.9,17.7,49.1,131.5,92.2,249.2c160.9,445.4,231.5,853.5,231.5,1332.2c0,676.9-125.6,1092.8-421.8,1395c-206,209.9-502.3,325.7-828,321.8C6123.4,4684.6,6021.3,4672.8,5980.2,4661.1z M6525.6,3952.8c109.9-64.8,194.2-202.1,249.2-396.3c37.3-135.4,43.2-206,43.2-557.2c2-431.6-17.7-590.6-115.8-932c-117.7-412-231.5-661.2-498.4-1088.9l-176.6-284.5l1190.9-9.8c1139.9-9.8,1194.9-11.8,1300.8-51c423.8-153,676.9-518,743.6-1067.3c70.6-584.7-70.6-1740.3-351.2-2868.5c-88.3-359-129.5-449.3-259-592.5c-264.9-290.4-641.6-359-1889.4-339.4c-388.5,5.9-778.9,19.6-865.2,31.4c-355.1,45.1-394.4,58.9-606.3,196.2c-107.9,72.6-364.9,229.5-570.9,349.2c-294.3,172.7-396.3,223.7-488.5,239.4c-64.8,11.8-300.2,21.6-525.8,21.6h-408.1v1634.4v1636.3l127.5,54.9c186.4,78.5,596.4,323.7,812.3,482.7c280.6,209.9,633.7,572.9,804.4,831.9c268.8,406.1,586.6,1104.6,880.9,1942.4c117.7,335.5,286.5,780.9,310,818.2C6254.8,4037.1,6433.4,4005.8,6525.6,3952.8z"/></g></g>
</svg>