<?xml version="1.0" encoding="utf-8"?>
<!DOCTYPE svg PUBLIC "-//W3C//DTD SVG 1.1//EN" "http://www.w3.org/Graphics/SVG/1.1/DTD/svg11.dtd">
<svg version="1.1" xmlns="http://www.w3.org/2000/svg" xmlns:xlink="http://www.w3.org/1999/xlink" x="0px" y="0px" viewBox="0 0 1000 1000" enable-background="new 0 0 1000 1000" xml:space="preserve">
<metadata> Svg Vector Icons : http://www.onlinewebfonts.com/icon </metadata>
<g><path d="M826.7,10H173.4C83.5,10,10,83.5,10,173.4v653.3C10,916.5,83.5,990,173.4,990h653.3c89.8,0,163.3-73.5,163.3-163.4V173.4C990,83.5,916.5,10,826.7,10z M277,805.5c-45.9,0-83.2-37-83.2-82.9c0-45.6,37.3-83.1,83.2-83.1c46.1,0,83.3,37.5,83.3,83.1C360.3,768.5,323,805.5,277,805.5z M486.1,806.3c0-78.3-30.4-152-85.6-207.1c-55.2-55.3-128.6-85.8-206.6-85.8V393.5c227.4,0,412.6,185.1,412.6,412.7L486.1,806.3L486.1,806.3z M698.7,806.3C698.7,527.7,472.2,301,194,301V181.1c344.5,0,624.9,280.5,624.9,625.1L698.7,806.3L698.7,806.3z"/></g>
</svg>